# xmcd
#
# Track frame offsets:
#	150
#	12310
#	25493
#	32505
#	49998
#	62661
#	76304
#	89182
#	105600
#	116137
#	128571
#	137263
#	151133
#
# Disc length: 2204 seconds
# Revision: 0
# Processed by: cddbd v1.5.2PL0 Copyright (c) Steve Scherf et al.
# Submitted via: dBpowerAMP V12.0
#
DISCID=a4089a0d
DTITLE=Claude King - The Cajun Cowboy Rides Again
DYEAR=2007
DGENRE=Country
TTITLE0=The Cajun Cowboy
TTITLE1=Wolverton Mountain Music
TTITLE2=Run Baby Run (Before Elvis)
TTITLE3=The Louisiana Hayride 60th Year Tribute
TTITLE4=The Texas Blue Bonnet Waltz
TTITLE5=West Texas memories
TTITLE6=Don't That Moon Look Lonesome
TTITLE7=Twenty-one
TTITLE8=Sometimes You LOse, Sometimes You Win
TTITLE9=I Know It's Not Easy Loving Me
TTITLE10=Got The World By The Tail
TTITLE11=I Can't Help Fallin' In Love With You
TTITLE12=Happy Birthday Mama
EXTD=
EXTT0=
EXTT1=
EXTT2=
EXTT3=
EXTT4=
EXTT5=
EXTT6=
EXTT7=
EXTT8=
EXTT9=
EXTT10=
EXTT11=
EXTT12=
PLAYORDER=
